<svg width="26" height="26" viewBox="0 0 26 26" fill="none" xmlns="http://www.w3.org/2000/svg">
<path fill-rule="evenodd" clip-rule="evenodd" d="M13 0C20.1799 0 26 5.96692 26 13.3288C26 19.2165 22.2794 24.2112 17.1171 25.9753C16.458 26.1066 16.224 25.6903 16.224 25.3354C16.224 24.896 16.2396 23.4609 16.2396 21.6773C16.2396 20.4345 15.8236 19.6233 15.3569 19.2099C18.252 18.8797 21.294 17.7525 21.294 12.6331C21.294 11.1771 20.7896 9.98898 19.955 9.05558C20.0902 8.71888 20.5361 7.36315 19.8276 5.52755C19.8276 5.52755 18.7382 5.1704 16.2565 6.8942C15.2178 6.5991 14.105 6.45062 13 6.44542C11.895 6.45062 10.7835 6.5991 9.74612 6.8942C7.26181 5.1704 6.16981 5.52755 6.16981 5.52755C5.46391 7.36315 5.90981 8.71888 6.04371 9.05558C5.21301 9.98898 4.70471 11.1771 4.70471 12.6331C4.70471 17.7395 7.74022 18.884 10.6275 19.2207C10.2557 19.5535 9.91901 20.1406 9.80202 21.0025C9.06101 21.3431 7.17861 21.9326 6.019 19.8955C6.019 19.8955 5.33131 18.6148 4.02611 18.5212C4.02611 18.5212 2.7586 18.5044 3.9377 19.3312C3.9377 19.3312 4.78921 19.7407 5.38071 21.2812C5.38071 21.2812 6.14381 23.6601 9.76042 22.8541C9.76692 23.9682 9.77862 25.0182 9.77862 25.3354C9.77862 25.6877 9.53941 26.1001 8.89071 25.9766C3.7245 24.215 0 19.2178 0 13.3288C0 5.96692 5.82141 0 13 0Z" fill="#D9D9D9"/>
</svg>
