<svg width="284" height="74" viewBox="0 0 284 74" fill="none" xmlns="http://www.w3.org/2000/svg">
<path d="M89.5455 42.5454C89.4091 41.3939 88.8561 40.5 87.8864 39.8636C86.9167 39.2273 85.7273 38.9091 84.3182 38.9091C83.2879 38.9091 82.3864 39.0757 81.6136 39.4091C80.8485 39.7424 80.25 40.2007 79.8182 40.7841C79.3939 41.3674 79.1818 42.0303 79.1818 42.7727C79.1818 43.3939 79.3295 43.928 79.625 44.375C79.928 44.8144 80.3144 45.1818 80.7841 45.4773C81.2538 45.7651 81.7462 46.0038 82.2614 46.1932C82.7765 46.375 83.25 46.5227 83.6818 46.6364L86.0455 47.2727C86.6515 47.4318 87.3258 47.6515 88.0682 47.9318C88.8182 48.2121 89.5341 48.5947 90.2159 49.0795C90.9053 49.5568 91.4735 50.1704 91.9205 50.9204C92.3674 51.6704 92.5909 52.5909 92.5909 53.6818C92.5909 54.9394 92.2614 56.0757 91.6023 57.0909C90.9508 58.1061 89.9962 58.9129 88.7386 59.5114C87.4886 60.1098 85.9697 60.4091 84.1818 60.4091C82.5152 60.4091 81.072 60.1401 79.8523 59.6023C78.6402 59.0644 77.6856 58.3144 76.9886 57.3523C76.2992 56.3901 75.9091 55.2727 75.8182 54H78.7273C78.803 54.8788 79.0985 55.6061 79.6136 56.1818C80.1364 56.75 80.7955 57.1742 81.5909 57.4545C82.3939 57.7273 83.2576 57.8636 84.1818 57.8636C85.2576 57.8636 86.2235 57.6894 87.0795 57.3409C87.9356 56.9848 88.6136 56.4924 89.1136 55.8636C89.6136 55.2273 89.8636 54.4848 89.8636 53.6364C89.8636 52.8636 89.6477 52.2348 89.2159 51.75C88.7841 51.2651 88.2159 50.8712 87.5114 50.5682C86.8068 50.2651 86.0455 50 85.2273 49.7727L82.3636 48.9545C80.5455 48.4318 79.1061 47.6856 78.0455 46.7159C76.9848 45.7462 76.4545 44.4773 76.4545 42.9091C76.4545 41.6061 76.8068 40.4697 77.5114 39.5C78.2235 38.5227 79.178 37.7651 80.375 37.2273C81.5795 36.6818 82.9242 36.4091 84.4091 36.4091C85.9091 36.4091 87.2424 36.678 88.4091 37.2159C89.5758 37.7462 90.5 38.4735 91.1818 39.3977C91.8712 40.322 92.2348 41.3712 92.2727 42.5454H89.5455ZM100.043 36.7273V60H97.2244V36.7273H100.043ZM121.602 44C121.352 43.2348 121.023 42.5492 120.614 41.9432C120.212 41.3295 119.731 40.8068 119.17 40.375C118.617 39.9432 117.989 39.6136 117.284 39.3864C116.58 39.1591 115.807 39.0454 114.966 39.0454C113.587 39.0454 112.333 39.4015 111.205 40.1136C110.076 40.8257 109.178 41.875 108.511 43.2614C107.845 44.6477 107.511 46.3485 107.511 48.3636C107.511 50.3788 107.848 52.0795 108.523 53.4659C109.197 54.8523 110.11 55.9015 111.261 56.6136C112.413 57.3257 113.708 57.6818 115.148 57.6818C116.481 57.6818 117.655 57.3977 118.67 56.8295C119.693 56.2538 120.489 55.4432 121.057 54.3977C121.633 53.3447 121.92 52.1061 121.92 50.6818L122.784 50.8636H115.784V48.3636H124.648V50.8636C124.648 52.7803 124.239 54.447 123.42 55.8636C122.61 57.2803 121.489 58.3788 120.057 59.1591C118.633 59.9318 116.996 60.3182 115.148 60.3182C113.087 60.3182 111.277 59.8333 109.716 58.8636C108.163 57.8939 106.951 56.5151 106.08 54.7273C105.216 52.9394 104.784 50.8182 104.784 48.3636C104.784 46.5227 105.03 44.8674 105.523 43.3977C106.023 41.9204 106.727 40.6629 107.636 39.625C108.545 38.5871 109.621 37.7917 110.864 37.2386C112.106 36.6856 113.473 36.4091 114.966 36.4091C116.193 36.4091 117.337 36.5947 118.398 36.9659C119.466 37.3295 120.417 37.8485 121.25 38.5227C122.091 39.1894 122.792 39.9886 123.352 40.9204C123.913 41.8447 124.299 42.8712 124.511 44H121.602ZM129.474 60V36.7273H143.52V39.2273H132.293V47.0909H142.793V49.5909H132.293V57.5H143.702V60H129.474ZM157.599 60V36.7273H171.645V39.2273H160.418V47.0909H170.918V49.5909H160.418V57.5H171.827V60H157.599ZM189.452 42.5454C189.315 41.3939 188.762 40.5 187.793 39.8636C186.823 39.2273 185.634 38.9091 184.224 38.9091C183.194 38.9091 182.293 39.0757 181.52 39.4091C180.755 39.7424 180.156 40.2007 179.724 40.7841C179.3 41.3674 179.088 42.0303 179.088 42.7727C179.088 43.3939 179.236 43.928 179.531 44.375C179.834 44.8144 180.221 45.1818 180.69 45.4773C181.16 45.7651 181.652 46.0038 182.168 46.1932C182.683 46.375 183.156 46.5227 183.588 46.6364L185.952 47.2727C186.558 47.4318 187.232 47.6515 187.974 47.9318C188.724 48.2121 189.44 48.5947 190.122 49.0795C190.812 49.5568 191.38 50.1704 191.827 50.9204C192.274 51.6704 192.497 52.5909 192.497 53.6818C192.497 54.9394 192.168 56.0757 191.509 57.0909C190.857 58.1061 189.902 58.9129 188.645 59.5114C187.395 60.1098 185.876 60.4091 184.088 60.4091C182.421 60.4091 180.978 60.1401 179.759 59.6023C178.546 59.0644 177.592 58.3144 176.895 57.3523C176.205 56.3901 175.815 55.2727 175.724 54H178.634C178.709 54.8788 179.005 55.6061 179.52 56.1818C180.043 56.75 180.702 57.1742 181.497 57.4545C182.3 57.7273 183.164 57.8636 184.088 57.8636C185.164 57.8636 186.13 57.6894 186.986 57.3409C187.842 56.9848 188.52 56.4924 189.02 55.8636C189.52 55.2273 189.77 54.4848 189.77 53.6364C189.77 52.8636 189.554 52.2348 189.122 51.75C188.69 51.2651 188.122 50.8712 187.418 50.5682C186.713 50.2651 185.952 50 185.134 49.7727L182.27 48.9545C180.452 48.4318 179.012 47.6856 177.952 46.7159C176.891 45.7462 176.361 44.4773 176.361 42.9091C176.361 41.6061 176.713 40.4697 177.418 39.5C178.13 38.5227 179.084 37.7651 180.281 37.2273C181.486 36.6818 182.83 36.4091 184.315 36.4091C185.815 36.4091 187.149 36.678 188.315 37.2159C189.482 37.7462 190.406 38.4735 191.088 39.3977C191.777 40.322 192.141 41.3712 192.179 42.5454H189.452ZM215.858 44H213.04C212.873 43.1894 212.581 42.4773 212.165 41.8636C211.756 41.25 211.256 40.7348 210.665 40.3182C210.081 39.8939 209.434 39.5757 208.722 39.3636C208.009 39.1515 207.267 39.0454 206.494 39.0454C205.085 39.0454 203.809 39.4015 202.665 40.1136C201.528 40.8257 200.623 41.875 199.949 43.2614C199.282 44.6477 198.949 46.3485 198.949 48.3636C198.949 50.3788 199.282 52.0795 199.949 53.4659C200.623 54.8523 201.528 55.9015 202.665 56.6136C203.809 57.3257 205.085 57.6818 206.494 57.6818C207.267 57.6818 208.009 57.5757 208.722 57.3636C209.434 57.1515 210.081 56.8371 210.665 56.4204C211.256 55.9962 211.756 55.4773 212.165 54.8636C212.581 54.2424 212.873 53.5303 213.04 52.7273H215.858C215.646 53.9167 215.259 54.9811 214.699 55.9204C214.138 56.8598 213.441 57.6591 212.608 58.3182C211.775 58.9697 210.839 59.4659 209.801 59.8068C208.771 60.1477 207.669 60.3182 206.494 60.3182C204.509 60.3182 202.744 59.8333 201.199 58.8636C199.653 57.8939 198.438 56.5151 197.551 54.7273C196.665 52.9394 196.222 50.8182 196.222 48.3636C196.222 45.9091 196.665 43.7879 197.551 42C198.438 40.2121 199.653 38.8333 201.199 37.8636C202.744 36.8939 204.509 36.4091 206.494 36.4091C207.669 36.4091 208.771 36.5795 209.801 36.9204C210.839 37.2614 211.775 37.7614 212.608 38.4204C213.441 39.072 214.138 39.8674 214.699 40.8068C215.259 41.7386 215.646 42.803 215.858 44ZM240.048 48.3636C240.048 50.8182 239.605 52.9394 238.719 54.7273C237.832 56.5151 236.616 57.8939 235.071 58.8636C233.526 59.8333 231.76 60.3182 229.776 60.3182C227.791 60.3182 226.026 59.8333 224.48 58.8636C222.935 57.8939 221.719 56.5151 220.832 54.7273C219.946 52.9394 219.503 50.8182 219.503 48.3636C219.503 45.9091 219.946 43.7879 220.832 42C221.719 40.2121 222.935 38.8333 224.48 37.8636C226.026 36.8939 227.791 36.4091 229.776 36.4091C231.76 36.4091 233.526 36.8939 235.071 37.8636C236.616 38.8333 237.832 40.2121 238.719 42C239.605 43.7879 240.048 45.9091 240.048 48.3636ZM237.321 48.3636C237.321 46.3485 236.984 44.6477 236.31 43.2614C235.643 41.875 234.738 40.8257 233.594 40.1136C232.457 39.4015 231.185 39.0454 229.776 39.0454C228.366 39.0454 227.09 39.4015 225.946 40.1136C224.81 40.8257 223.904 41.875 223.23 43.2614C222.563 44.6477 222.23 46.3485 222.23 48.3636C222.23 50.3788 222.563 52.0795 223.23 53.4659C223.904 54.8523 224.81 55.9015 225.946 56.6136C227.09 57.3257 228.366 57.6818 229.776 57.6818C231.185 57.6818 232.457 57.3257 233.594 56.6136C234.738 55.9015 235.643 54.8523 236.31 53.4659C236.984 52.0795 237.321 50.3788 237.321 48.3636ZM244.787 60V36.7273H247.605V57.5H258.423V60H244.787ZM265.21 60H262.256L270.801 36.7273H273.71L282.256 60H279.301L272.347 40.4091H272.165L265.21 60ZM266.301 50.9091H278.21V53.4091H266.301V50.9091Z" fill="#D9D9D9"/>
<path d="M65.6088 26.5829C66.5584 26.99 67.0091 28.0836 66.6152 29.0259L54.2443 58.6315L52.2202 63.4771C51.8258 64.4189 50.7366 64.8535 49.7874 64.4459L18.1266 50.8778C17.1774 50.4711 16.7266 49.3776 17.1205 48.4354L19.145 43.5892L45.9219 55.0647C46.8715 55.4718 47.9608 55.0382 48.3547 54.0959L60.7256 24.4904L65.6088 26.5829Z" fill="#0400DA"/>
<path d="M46.7758 50.8294C46.3588 51.7748 45.2606 52.2142 44.3224 51.8106L14.8462 39.1345L10.0218 37.0606C9.08408 36.6564 8.66077 35.5628 9.07819 34.6179L22.9725 3.09881C23.3889 2.15392 24.487 1.71447 25.4252 2.11806L30.2502 4.19252L18.4988 30.8494C18.0819 31.7948 18.5042 32.8885 19.4424 33.2921L48.9186 45.9681L46.7758 50.8294Z" fill="#0400DA"/>
</svg>
